<svg width="540" height="160" viewBox="0 0 540 160" fill="none" xmlns="http://www.w3.org/2000/svg">
  <rect width="540" height="160" rx="24" fill="white"/>
  <path d="M58 36H182C194.15 36 200.18 50.6 191.62 59.18L123.38 127.42C118.56 132.24 110.94 132.94 105.32 129.07L69.7 104.52C61.85 99.11 62.08 87.43 70.14 82.34L99.68 63.69C108.12 58.36 119.16 61.32 123.86 70.13L126.91 75.85C128.17 78.22 131.47 78.47 133.08 76.33L149.44 54.62C154.24 48.25 149.7 39 141.74 39H58V36Z" fill="#B39B57"/>
  <path d="M117.7 73.35L132.95 63.3L143.35 69.02L137.96 81.06L121.8 94.2L107.51 90.45L112.73 79.77L117.7 73.35Z" fill="white"/>
  <path d="M112.23 68.73C117.37 61.96 124.94 57.44 133.39 56.14C137.56 55.5 140.62 59.73 138.8 63.47C135.55 70.16 129.15 76.14 121.77 80.06C116.65 82.78 110.92 78.32 111.26 72.53L111.4 70.11L112.23 68.73Z" fill="white"/>
  <path d="M214 122L236.22 95.67C244.35 102.2 255.14 105.46 267.47 105.46C278.11 105.46 285.84 103.48 290.67 99.52C295.64 95.42 298.13 90.06 298.13 83.44C298.13 76.38 295.28 71.02 289.59 67.36C283.89 63.55 274.77 60.37 262.22 57.81C244.08 54.06 230.93 48.77 222.75 41.96C214.72 35.14 210.7 25.72 210.7 13.69C210.7 5.56 212.97 -1.5 217.51 -7.49C222.04 -13.48 228.72 -18.1 237.55 -21.35C246.53 -24.61 257.32 -26.23 269.91 -26.23C289.25 -26.23 305.5 -21.7 318.66 -12.64L299.22 15.17C291.46 9.26 281.03 6.3 268.94 6.3C260.13 6.3 253.45 8.14 248.9 11.8C244.35 15.32 242.08 20.09 242.08 26.12C242.08 31.98 244.72 36.31 250 39.13C255.41 41.82 264.34 44.38 276.78 46.8C296.44 50.68 310.18 56.4 318 63.99C325.91 71.57 329.87 81.87 329.87 94.89C329.87 108.06 324.82 118.68 314.72 126.75C304.61 134.83 290.42 138.87 272.13 138.87C248.26 138.87 228.88 133.25 214 122Z" fill="#3F4C5C"/>
  <path d="M407.73 139.42C391.16 139.42 376.38 135.98 363.38 129.1C350.38 122.08 340.19 112.48 332.81 100.29C325.42 88.1 321.73 74.42 321.73 59.23C321.73 44.05 325.42 30.36 332.81 18.17C340.19 5.98 350.38 -3.55 363.38 -10.43C376.38 -17.31 391.16 -20.75 407.73 -20.75C424.3 -20.75 439.07 -17.31 452.07 -10.43C465.08 -3.55 475.26 5.98 482.65 18.17C490.03 30.36 493.72 44.05 493.72 59.23C493.72 74.42 490.03 88.1 482.65 100.29C475.26 112.48 465.08 122.08 452.07 129.1C439.07 135.98 424.3 139.42 407.73 139.42ZM407.73 109.8C417.82 109.8 426.87 107.54 434.89 103.03C442.9 98.38 449.13 91.97 453.58 83.8C458.15 75.63 460.44 67.43 460.44 59.23C460.44 51.03 458.15 42.83 453.58 34.66C449.13 26.49 442.9 20.16 434.89 15.69C426.87 11.07 417.82 8.76 407.73 8.76C397.62 8.76 388.49 11.07 380.34 15.69C372.32 20.16 366.03 26.49 361.46 34.66C357 42.83 354.78 51.03 354.78 59.23C354.78 67.43 357 75.63 361.46 83.8C366.03 91.97 372.32 98.38 380.34 103.03C388.49 107.54 397.62 109.8 407.73 109.8Z" fill="#3F4C5C"/>
</svg>
